<svg width="474" height="208" viewBox="0 0 474 208" fill="none" xmlns="http://www.w3.org/2000/svg">
<path d="M106.62 33.542C115.504 48.6358 124.008 63.0954 132.512 77.555C147.426 102.923 162.276 128.29 177.316 153.658C178.712 156.068 178.522 157.019 176.11 158.478C148.822 174.587 121.597 190.822 94.3715 207.121C92.7849 208.072 91.6426 208.389 89.8657 207.374C62.6406 191.266 35.352 175.284 8.19031 159.239C7.99993 159.112 7.873 158.922 7.68262 158.668C8.3807 157.654 9.39609 158.161 10.2211 158.161C12.9499 158.098 15.6788 158.098 18.4711 158.098C25.6423 158.098 33.1308 156.829 39.8578 158.605C46.5213 160.381 52.4232 165.2 58.6425 168.689C69.1137 174.587 79.6483 180.485 90.0561 186.446C91.7695 187.397 92.9119 187.334 94.5619 186.383C113.22 175.284 131.877 164.313 150.662 153.404C152.883 152.136 153.01 151.312 151.804 149.155C133.972 117.192 116.329 85.1653 98.4965 53.2654C97.3542 51.236 97.3542 49.7773 98.56 47.8113C101.225 43.3086 103.7 38.679 106.62 33.542Z" fill="#261F14"/>
<path d="M405.969 145.35V49.333H474V67.2807H426.467V87.5749H473.048V105.586H426.467V127.339H474V145.35H405.969Z" fill="#261F14"/>
<path d="M334.384 145.35L297.195 49.333H320.549L347.203 123.217L373.73 49.333H397.084L360.023 145.413H334.384V145.35Z" fill="#261F14"/>
<path d="M267.939 145.35V49.333H288.374V145.413H267.939V145.35Z" fill="#261F14"/>
<path d="M183.028 87.0675H228.466V49.333H249.091V145.413H228.466V105.079H183.091" fill="#261F14"/>
<path d="M184.297 176.679V158.541H193.879C197.37 158.541 199.083 160.761 199.083 163.171C199.083 165.454 197.687 166.976 195.974 167.356C197.941 167.673 199.464 169.513 199.464 171.796C199.464 174.523 197.687 176.742 194.197 176.742H184.297V176.679ZM195.085 163.805C195.085 162.663 194.26 161.902 192.991 161.902H188.168V165.707H192.991C194.324 165.707 195.085 164.946 195.085 163.805ZM195.466 171.161C195.466 170.02 194.641 169.069 193.181 169.069H188.168V173.191H193.181C194.577 173.254 195.466 172.493 195.466 171.161Z" fill="#261F14"/>
<path d="M202.193 176.679V158.541H206.064V173.318H213.743V176.742H202.193V176.679Z" fill="#261F14"/>
<path d="M214.758 167.611C214.758 162.157 218.756 158.225 224.278 158.225C229.735 158.225 233.733 162.157 233.733 167.611C233.733 173.065 229.735 176.997 224.278 176.997C218.756 176.997 214.758 173.065 214.758 167.611ZM229.799 167.611C229.799 164.186 227.641 161.649 224.278 161.649C220.914 161.649 218.756 164.186 218.756 167.611C218.756 170.972 220.914 173.572 224.278 173.572C227.641 173.572 229.799 170.972 229.799 167.611Z" fill="#261F14"/>
<path d="M235.574 167.611C235.574 162.03 239.826 158.225 245.284 158.225C249.282 158.225 251.566 160.381 252.836 162.664L249.536 164.313C248.774 162.854 247.124 161.649 245.284 161.649C241.984 161.649 239.572 164.186 239.572 167.611C239.572 171.035 241.984 173.572 245.284 173.572C247.124 173.572 248.774 172.431 249.536 170.908L252.836 172.494C251.566 174.777 249.218 176.933 245.284 176.933C239.826 176.997 235.574 173.192 235.574 167.611Z" fill="#261F14"/>
<path d="M265.972 176.679L260.451 169.386L259.055 171.098V176.679H255.184V158.541H259.055V166.659L265.464 158.541H270.224L262.989 167.039L270.732 176.679H265.972Z" fill="#261F14"/>
<path d="M270.351 167.611C270.351 162.03 274.603 158.225 280.06 158.225C284.059 158.225 286.343 160.381 287.612 162.664L284.312 164.313C283.551 162.854 281.901 161.649 280.06 161.649C276.76 161.649 274.349 164.186 274.349 167.611C274.349 171.035 276.76 173.572 280.06 173.572C281.901 173.572 283.551 172.431 284.312 170.908L287.612 172.494C286.343 174.777 283.995 176.933 280.06 176.933C274.603 176.997 270.351 173.192 270.351 167.611Z" fill="#261F14"/>
<path d="M302.399 176.679V169.005H293.832V176.679H289.96V158.541H293.832V165.644H302.399V158.541H306.27V176.679H302.399Z" fill="#261F14"/>
<path d="M322.453 176.679L321.311 173.571H313.505L312.363 176.679H307.984L314.964 158.541H319.788L326.768 176.679H322.453ZM317.376 162.346L314.52 170.147H320.168L317.376 162.346Z" fill="#261F14"/>
<path d="M328.546 176.679V158.541H332.417V176.679H328.546Z" fill="#261F14"/>
<path d="M348.536 176.679L339.842 164.82V176.679H335.971V158.541H339.969L348.409 169.956V158.541H352.28V176.679H348.536Z" fill="#261F14"/>
<path d="M361.609 174.079L363.704 171.035C364.973 172.367 367.004 173.509 369.479 173.509C371.636 173.509 372.652 172.557 372.652 171.479C372.652 168.308 362.181 170.528 362.181 163.679C362.181 160.634 364.782 158.161 369.098 158.161C372.017 158.161 374.365 159.049 376.206 160.698L374.048 163.615C372.588 162.283 370.621 161.649 368.781 161.649C367.131 161.649 366.242 162.347 366.242 163.425C366.242 166.279 376.65 164.376 376.65 171.162C376.65 174.46 374.238 176.997 369.352 176.997C365.798 176.997 363.323 175.792 361.609 174.079Z" fill="#261F14"/>
<path d="M378.3 167.611C378.3 162.157 382.298 158.225 387.819 158.225C393.277 158.225 397.275 162.157 397.275 167.611C397.275 173.065 393.277 176.997 387.819 176.997C382.361 176.997 378.3 173.065 378.3 167.611ZM393.34 167.611C393.34 164.186 391.182 161.649 387.819 161.649C384.455 161.649 382.298 164.186 382.298 167.611C382.298 170.972 384.455 173.572 387.819 173.572C391.182 173.572 393.34 170.972 393.34 167.611Z" fill="#261F14"/>
<path d="M399.178 167.611C399.178 162.03 403.43 158.225 408.888 158.225C412.886 158.225 415.171 160.381 416.44 162.664L413.14 164.313C412.378 162.854 410.728 161.649 408.888 161.649C405.588 161.649 403.176 164.186 403.176 167.611C403.176 171.035 405.588 173.572 408.888 173.572C410.728 173.572 412.378 172.431 413.14 170.908L416.44 172.494C415.171 174.777 412.823 176.933 408.888 176.933C403.367 176.997 399.178 173.192 399.178 167.611Z" fill="#261F14"/>
<path d="M418.788 176.679V158.541H422.659V176.679H418.788Z" fill="#261F14"/>
<path d="M426.213 176.679V158.541H439.096V161.966H430.084V165.771H438.905V169.195H430.084V173.318H439.096V176.742H426.213V176.679Z" fill="#261F14"/>
<path d="M446.331 176.679V161.902H441V158.478H455.469V161.902H450.202V176.679H446.331Z" fill="#261F14"/>
<path d="M463.021 176.679V169.259L456.04 158.541H460.483L464.988 165.834L469.494 158.541H473.873L466.956 169.259V176.679H463.021Z" fill="#261F14"/>
<path d="M184.424 145.287C183.218 146.302 183.091 145.097 182.71 144.462C177.57 135.33 172.493 126.134 167.353 117.002C166.401 115.353 166.401 113.641 166.401 111.801C166.401 95.249 166.337 78.6331 166.464 62.0807C166.464 59.4805 165.703 58.0852 163.418 56.7534C144.126 46.099 124.833 35.3811 105.668 24.473C103.066 23.0144 102.05 23.2046 100.591 25.8682C84.9792 53.8361 69.1772 81.7407 53.4386 109.645C51.2809 113.577 49.0598 117.382 46.9655 121.251C46.0136 123.027 44.8078 123.851 42.7136 123.788C38.0809 123.661 33.3847 123.597 28.752 123.788C25.7693 123.915 25.8962 122.963 27.102 120.807C34.2732 108.187 41.3809 95.5026 48.5521 82.8188C63.5925 56.1192 78.633 29.4831 93.61 2.72017C95.1965 -0.197114 96.2754 -0.767888 99.385 1.00785C126.547 16.4187 153.835 31.576 181.187 46.7332C183.408 47.9382 184.107 49.3334 184.107 51.7433C184.043 81.2967 184.043 110.914 184.043 140.467C184.043 141.862 184.233 143.321 184.36 144.716C184.551 144.843 184.678 144.906 184.614 145.033C184.551 145.223 184.487 145.287 184.424 145.287Z" fill="#261F14"/>
<path d="M17.7729 131.017C18.8517 132.222 20.2479 131.588 21.4537 131.588C57.6269 131.651 93.8002 131.651 129.91 131.588C133.337 131.588 135.558 132.222 137.145 135.647C139.112 140.023 141.777 144.145 144.252 148.458C142.348 149.219 140.635 148.901 139.048 148.901C94.054 148.901 49.0596 148.838 4.06512 148.965C0.701646 148.965 -0.0598959 147.95 0.00356597 144.779C0.13049 113.767 0.0670278 82.7551 0.0670278 51.7431C0.0670278 49.9039 0.13049 48.3819 2.09781 47.3037C29.0691 32.0197 55.9134 16.5454 82.8213 1.13448C83.0751 1.00764 83.4559 1.00764 84.154 0.817383C79.0135 10.2034 74.0001 19.209 69.05 28.2779C68.2885 29.6098 66.9558 30.1805 65.75 30.8781C51.4711 39.3129 37.1287 47.6208 22.8498 56.0556C22.2152 56.4361 21.7075 56.8801 21.1364 57.2606C18.5344 59.0997 18.2806 61.6999 18.344 64.6806C18.471 85.2919 18.4075 105.903 18.4075 126.451C18.344 127.973 18.6613 129.559 17.7729 131.017Z" fill="#261F14"/>
</svg>
