<svg width="229" height="182" viewBox="0 0 229 182" fill="none" xmlns="http://www.w3.org/2000/svg">
<path d="M50.7957 101.93C54.8133 99.6148 59.76 99.6148 63.7777 101.93L100.389 123.029C104.417 125.35 106.898 129.644 106.898 134.292V176.449C106.898 181.097 104.417 185.391 100.389 187.712L63.7777 208.811C59.76 211.126 54.8133 211.126 50.7957 208.811L14.184 187.712C10.1567 185.391 7.67496 181.097 7.67496 176.449V134.292C7.67496 129.644 10.1567 125.35 14.184 123.029L50.7957 101.93Z" fill="#FCD564"/>
<path d="M165.152 101.93C169.17 99.6148 174.117 99.6148 178.134 101.93L214.746 123.029C218.773 125.35 221.255 129.644 221.255 134.292V176.449C221.255 181.097 218.773 185.391 214.746 187.712L178.134 208.811C174.117 211.126 169.17 211.126 165.152 208.811L128.541 187.712C124.513 185.391 122.032 181.097 122.032 176.449V134.292C122.032 129.644 124.513 125.35 128.541 123.029L165.152 101.93Z" fill="#FCD564"/>
<path d="M107.974 3.74067C111.992 1.42537 116.939 1.42536 120.956 3.74067L157.568 24.8395C161.595 27.1603 164.077 31.4548 164.077 36.103V78.2591C164.077 82.9072 161.595 87.2017 157.568 89.5226L120.956 110.621C116.939 112.937 111.992 112.937 107.974 110.621L71.3624 89.5226C67.3351 87.2017 64.8534 82.9072 64.8534 78.2591V36.103C64.8534 31.4548 67.3351 27.1603 71.3624 24.8395L107.974 3.74067Z" fill="#FCD564"/>
</svg>
