<svg width="1042" height="894" viewBox="0 0 1042 894" fill="none" xmlns="http://www.w3.org/2000/svg">
<path d="M400.579 199.772C404.593 202.094 407.066 206.378 407.07 211.015L407.106 256.743C407.11 261.392 404.632 265.688 400.606 268.012L361.095 290.824C357.069 293.148 352.109 293.146 348.086 290.819L308.502 267.923C304.488 265.601 302.015 261.317 302.011 256.68L301.974 210.951C301.971 206.303 304.449 202.007 308.474 199.683L347.986 176.871C352.011 174.547 356.971 174.549 360.995 176.876L400.579 199.772Z" fill="#FCD564"/>
<path d="M461.225 304.814C465.239 307.136 467.712 311.42 467.716 316.057L467.753 361.785C467.756 366.434 465.278 370.73 461.253 373.054L421.741 395.866C417.716 398.19 412.756 398.188 408.732 395.861L369.148 372.965C365.134 370.643 362.661 366.359 362.657 361.722L362.621 315.993C362.617 311.345 365.095 307.049 369.121 304.725L408.632 281.913C412.657 279.589 417.617 279.591 421.641 281.918L461.225 304.814Z" fill="#FCD564"/>
<path d="M521.094 200.22C525.108 202.542 527.582 206.826 527.585 211.463L527.622 257.192C527.625 261.84 525.147 266.136 521.122 268.46L481.61 291.272C477.585 293.596 472.625 293.594 468.601 291.267L429.017 268.371C425.003 266.049 422.53 261.765 422.526 257.128L422.49 211.4C422.486 206.751 424.964 202.455 428.99 200.131L468.501 177.319C472.527 174.995 477.487 174.997 481.51 177.324L521.094 200.22Z" fill="#FCD564"/>
<path d="M219.134 304.529C223.148 306.85 225.622 311.134 225.625 315.771L225.662 361.5C225.666 366.148 223.187 370.445 219.162 372.769L179.65 395.581C175.625 397.905 170.665 397.903 166.641 395.576L127.057 372.68C123.043 370.358 120.57 366.074 120.566 361.437L120.53 315.708C120.526 311.06 123.004 306.764 127.03 304.439L166.541 281.627C170.567 279.303 175.527 279.305 179.55 281.633L219.134 304.529Z" fill="#FCD564"/>
<path d="M279.78 409.571C283.794 411.892 286.268 416.176 286.271 420.813L286.308 466.542C286.311 471.19 283.833 475.487 279.808 477.811L240.296 500.623C236.271 502.947 231.311 502.945 227.287 500.618L187.703 477.722C183.689 475.4 181.216 471.116 181.212 466.479L181.176 420.75C181.172 416.102 183.65 411.806 187.676 409.481L227.187 386.669C231.213 384.345 236.173 384.347 240.196 386.675L279.78 409.571Z" fill="#FCD564"/>
<path d="M339.649 304.977C343.663 307.299 346.136 311.583 346.14 316.22L346.176 361.949C346.18 366.597 343.702 370.893 339.676 373.217L300.165 396.029C296.139 398.353 291.179 398.351 287.156 396.024L247.572 373.128C243.558 370.806 241.085 366.522 241.081 361.885L241.044 316.156C241.041 311.508 243.519 307.212 247.544 304.888L287.056 282.076C291.081 279.752 296.041 279.754 300.065 282.081L339.649 304.977Z" fill="#FCD564"/>
<path d="M401.356 409.407C405.37 411.728 407.843 416.012 407.847 420.649L407.884 466.378C407.887 471.026 405.409 475.323 401.384 477.647L361.872 500.459C357.847 502.783 352.887 502.781 348.863 500.454L309.279 477.558C305.265 475.236 302.792 470.952 302.788 466.315L302.752 420.586C302.748 415.938 305.226 411.641 309.252 409.317L348.763 386.505C352.789 384.181 357.749 384.183 361.772 386.511L401.356 409.407Z" fill="#FCD564"/>
<path d="M462.002 514.449C466.016 516.77 468.49 521.054 468.493 525.691L468.53 571.42C468.534 576.068 466.055 580.365 462.03 582.689L422.518 605.501C418.493 607.825 413.533 607.823 409.509 605.496L369.925 582.6C365.911 580.278 363.438 575.994 363.434 571.357L363.398 525.628C363.394 520.98 365.872 516.683 369.898 514.359L409.409 491.547C413.435 489.223 418.395 489.225 422.418 491.553L462.002 514.449Z" fill="#FCD564"/>
<path d="M521.871 409.856C525.885 412.178 528.358 416.462 528.362 421.099L528.399 466.827C528.402 471.476 525.924 475.772 521.899 478.096L482.387 500.908C478.362 503.232 473.402 503.23 469.378 500.903L429.794 478.007C425.78 475.685 423.307 471.401 423.303 466.764L423.267 421.035C423.263 416.387 425.741 412.091 429.767 409.767L469.278 386.955C473.303 384.631 478.263 384.633 482.287 386.96L521.871 409.856Z" fill="#FCD564"/>
<path d="M219.912 514.164C223.926 516.486 226.399 520.77 226.403 525.407L226.439 571.136C226.443 575.784 223.965 580.081 219.939 582.405L180.428 605.217C176.402 607.541 171.442 607.539 167.419 605.212L127.835 582.315C123.821 579.994 121.347 575.71 121.344 571.073L121.307 525.344C121.303 520.696 123.782 516.399 127.807 514.075L167.319 491.263C171.344 488.939 176.304 488.941 180.328 491.268L219.912 514.164Z" fill="#FCD564"/>
<path d="M280.558 619.206C284.572 621.528 287.045 625.812 287.049 630.449L287.085 676.178C287.089 680.826 284.611 685.123 280.585 687.447L241.074 710.259C237.048 712.583 232.088 712.581 228.065 710.254L188.481 687.357C184.467 685.036 181.993 680.752 181.99 676.115L181.953 630.386C181.949 625.738 184.428 621.441 188.453 619.117L227.965 596.305C231.99 593.981 236.95 593.983 240.974 596.31L280.558 619.206Z" fill="#FCD564"/>
<path d="M340.426 514.613C344.44 516.934 346.914 521.218 346.917 525.855L346.954 571.584C346.957 576.232 344.479 580.529 340.454 582.853L300.942 605.665C296.917 607.989 291.957 607.987 287.933 605.66L248.349 582.764C244.335 580.442 241.862 576.158 241.858 571.521L241.822 525.792C241.818 521.144 244.296 516.848 248.322 514.523L287.833 491.711C291.859 489.387 296.819 489.389 300.842 491.717L340.426 514.613Z" fill="#FCD564"/>
<path d="M763.185 200.505C767.199 202.827 769.673 207.111 769.676 211.748L769.713 257.477C769.717 262.125 767.238 266.421 763.213 268.746L723.701 291.558C719.676 293.882 714.716 293.88 710.692 291.552L671.108 268.656C667.094 266.335 664.621 262.051 664.617 257.414L664.581 211.685C664.577 207.037 667.055 202.74 671.081 200.416L710.592 177.604C714.618 175.28 719.578 175.282 723.601 177.609L763.185 200.505Z" fill="#FCD564"/>
<path d="M823.831 305.547C827.845 307.869 830.319 312.153 830.322 316.79L830.359 362.519C830.363 367.167 827.884 371.463 823.859 373.788L784.347 396.6C780.322 398.924 775.362 398.922 771.338 396.594L731.754 373.698C727.74 371.377 725.267 367.093 725.263 362.456L725.227 316.727C725.223 312.079 727.701 307.782 731.727 305.458L771.238 282.646C775.264 280.322 780.224 280.324 784.247 282.651L823.831 305.547Z" fill="#FCD564"/>
<path d="M883.7 200.954C887.714 203.276 890.188 207.56 890.191 212.197L890.228 257.926C890.232 262.574 887.753 266.871 883.728 269.195L844.216 292.007C840.191 294.331 835.231 294.329 831.207 292.002L791.623 269.106C787.609 266.784 785.136 262.5 785.132 257.863L785.096 212.134C785.092 207.486 787.57 203.189 791.596 200.865L831.107 178.053C835.133 175.729 840.093 175.731 844.116 178.058L883.7 200.954Z" fill="#FCD564"/>
<path d="M581.74 305.262C585.754 307.584 588.228 311.868 588.231 316.505L588.268 362.234C588.272 366.882 585.793 371.178 581.768 373.502L542.256 396.314C538.231 398.638 533.271 398.636 529.247 396.309L489.663 373.413C485.649 371.091 483.176 366.807 483.172 362.17L483.136 316.442C483.132 311.793 485.61 307.497 489.636 305.173L529.147 282.361C533.173 280.037 538.133 280.039 542.156 282.366L581.74 305.262Z" fill="#FCD564"/>
<path d="M642.386 410.305C646.4 412.627 648.874 416.911 648.877 421.548L648.914 467.277C648.918 471.925 646.439 476.221 642.414 478.545L602.902 501.357C598.877 503.681 593.917 503.679 589.893 501.352L550.309 478.456C546.295 476.134 543.822 471.85 543.818 467.213L543.782 421.485C543.778 416.836 546.256 412.54 550.282 410.216L589.793 387.404C593.819 385.08 598.779 385.082 602.802 387.409L642.386 410.305Z" fill="#FCD564"/>
<path d="M702.255 305.711C706.269 308.033 708.743 312.317 708.746 316.954L708.783 362.683C708.787 367.331 706.308 371.628 702.283 373.952L662.771 396.764C658.746 399.088 653.786 399.086 649.762 396.758L610.178 373.862C606.164 371.541 603.691 367.257 603.687 362.62L603.651 316.891C603.647 312.243 606.125 307.946 610.151 305.622L649.662 282.81C653.688 280.486 658.648 280.488 662.671 282.815L702.255 305.711Z" fill="#FCD564"/>
<path d="M763.962 410.141C767.976 412.463 770.45 416.747 770.453 421.384L770.49 467.113C770.494 471.761 768.015 476.057 763.99 478.381L724.478 501.193C720.453 503.517 715.493 503.515 711.469 501.188L671.885 478.292C667.871 475.97 665.398 471.686 665.394 467.049L665.358 421.32C665.354 416.672 667.832 412.376 671.858 410.052L711.369 387.24C715.395 384.916 720.355 384.918 724.378 387.245L763.962 410.141Z" fill="#FCD564"/>
<path d="M824.608 515.183C828.622 517.505 831.096 521.789 831.099 526.426L831.136 572.155C831.14 576.803 828.661 581.099 824.636 583.423L785.124 606.235C781.099 608.559 776.139 608.557 772.115 606.23L732.531 583.334C728.517 581.012 726.044 576.728 726.04 572.091L726.004 526.362C726 521.714 728.478 517.418 732.504 515.094L772.015 492.282C776.041 489.958 781.001 489.96 785.024 492.287L824.608 515.183Z" fill="#FCD564"/>
<path d="M884.478 410.589C888.491 412.911 890.965 417.195 890.969 421.832L891.005 467.561C891.009 472.209 888.53 476.505 884.505 478.83L844.994 501.642C840.968 503.966 836.008 503.964 831.985 501.636L792.4 478.74C788.387 476.419 785.913 472.135 785.909 467.498L785.873 421.769C785.869 417.121 788.348 412.824 792.373 410.5L831.884 387.688C835.91 385.364 840.87 385.366 844.893 387.693L884.478 410.589Z" fill="#FCD564"/>
<path d="M582.517 514.898C586.531 517.22 589.005 521.504 589.008 526.141L589.045 571.869C589.049 576.518 586.57 580.814 582.545 583.138L543.033 605.95C539.008 608.274 534.048 608.272 530.024 605.945L490.44 583.049C486.426 580.727 483.953 576.443 483.949 571.806L483.913 526.077C483.909 521.429 486.387 517.133 490.413 514.809L529.924 491.997C533.95 489.673 538.91 489.675 542.933 492.002L582.517 514.898Z" fill="#FCD564"/>
<path d="M643.164 619.94C647.177 622.262 649.651 626.546 649.655 631.183L649.691 676.911C649.695 681.56 647.217 685.856 643.191 688.18L603.68 710.992C599.654 713.316 594.694 713.314 590.671 710.987L551.087 688.091C547.073 685.769 544.599 681.485 544.596 676.848L544.559 631.119C544.555 626.471 547.034 622.175 551.059 619.851L590.571 597.039C594.596 594.715 599.556 594.717 603.58 597.044L643.164 619.94Z" fill="#FCD564"/>
<path d="M703.032 515.347C707.046 517.669 709.52 521.953 709.523 526.59L709.56 572.319C709.564 576.967 707.085 581.263 703.06 583.587L663.548 606.399C659.523 608.723 654.563 608.721 650.539 606.394L610.955 583.498C606.941 581.176 604.468 576.892 604.464 572.255L604.428 526.527C604.424 521.878 606.902 517.582 610.928 515.258L650.439 492.446C654.465 490.122 659.425 490.124 663.448 492.451L703.032 515.347Z" fill="#FCD564"/>
</svg>
