<svg width="1362" height="900" viewBox="0 0 1362 900" fill="none" xmlns="http://www.w3.org/2000/svg">
<path d="M554.579 199.772C558.593 202.094 561.066 206.378 561.07 211.015L561.106 256.743C561.11 261.392 558.632 265.688 554.606 268.012L515.095 290.824C511.069 293.148 506.109 293.146 502.086 290.819L462.502 267.923C458.488 265.601 456.015 261.317 456.011 256.68L455.974 210.951C455.971 206.303 458.449 202.007 462.474 199.683L501.986 176.871C506.011 174.547 510.971 174.549 514.995 176.876L554.579 199.772Z" fill="#FCD564"/>
<path d="M615.225 304.814C619.239 307.136 621.712 311.42 621.716 316.057L621.753 361.785C621.756 366.434 619.278 370.73 615.253 373.054L575.741 395.866C571.716 398.19 566.756 398.188 562.732 395.861L523.148 372.965C519.134 370.643 516.661 366.359 516.657 361.722L516.621 315.993C516.617 311.345 519.095 307.049 523.121 304.725L562.632 281.913C566.657 279.589 571.617 279.591 575.641 281.918L615.225 304.814Z" fill="#FCD564"/>
<path d="M675.094 200.22C679.108 202.542 681.582 206.826 681.585 211.463L681.622 257.192C681.625 261.84 679.147 266.136 675.122 268.46L635.61 291.272C631.585 293.596 626.625 293.594 622.601 291.267L583.017 268.371C579.003 266.049 576.53 261.765 576.526 257.128L576.49 211.4C576.486 206.751 578.964 202.455 582.99 200.131L622.501 177.319C626.527 174.995 631.487 174.997 635.51 177.324L675.094 200.22Z" fill="#FCD564"/>
<path d="M373.134 304.529C377.148 306.85 379.622 311.134 379.625 315.771L379.662 361.5C379.666 366.148 377.187 370.445 373.162 372.769L333.65 395.581C329.625 397.905 324.665 397.903 320.641 395.576L281.057 372.68C277.043 370.358 274.57 366.074 274.566 361.437L274.53 315.708C274.526 311.06 277.004 306.764 281.03 304.439L320.541 281.627C324.567 279.303 329.527 279.305 333.55 281.633L373.134 304.529Z" fill="#FCD564"/>
<path d="M433.78 409.571C437.794 411.892 440.268 416.176 440.271 420.813L440.308 466.542C440.311 471.19 437.833 475.487 433.808 477.811L394.296 500.623C390.271 502.947 385.311 502.945 381.287 500.618L341.703 477.722C337.689 475.4 335.216 471.116 335.212 466.479L335.176 420.75C335.172 416.102 337.65 411.806 341.676 409.481L381.187 386.669C385.213 384.345 390.173 384.347 394.196 386.675L433.78 409.571Z" fill="#FCD564"/>
<path d="M493.649 304.977C497.663 307.299 500.136 311.583 500.14 316.22L500.176 361.949C500.18 366.597 497.702 370.893 493.676 373.217L454.165 396.029C450.139 398.353 445.179 398.351 441.156 396.024L401.572 373.128C397.558 370.806 395.085 366.522 395.081 361.885L395.044 316.156C395.041 311.508 397.519 307.212 401.544 304.888L441.056 282.076C445.081 279.752 450.041 279.754 454.065 282.081L493.649 304.977Z" fill="#FCD564"/>
<path d="M555.356 409.407C559.37 411.728 561.843 416.012 561.847 420.649L561.884 466.378C561.887 471.026 559.409 475.323 555.384 477.647L515.872 500.459C511.847 502.783 506.887 502.781 502.863 500.454L463.279 477.558C459.265 475.236 456.792 470.952 456.788 466.315L456.752 420.586C456.748 415.938 459.226 411.641 463.252 409.317L502.763 386.505C506.789 384.181 511.749 384.183 515.772 386.511L555.356 409.407Z" fill="#FCD564"/>
<path d="M616.002 514.449C620.016 516.77 622.49 521.054 622.493 525.691L622.53 571.42C622.534 576.068 620.055 580.365 616.03 582.689L576.518 605.501C572.493 607.825 567.533 607.823 563.509 605.496L523.925 582.6C519.911 580.278 517.438 575.994 517.434 571.357L517.398 525.628C517.394 520.98 519.872 516.683 523.898 514.359L563.409 491.547C567.435 489.223 572.395 489.225 576.418 491.553L616.002 514.449Z" fill="#FCD564"/>
<path d="M675.871 409.856C679.885 412.178 682.358 416.462 682.362 421.099L682.399 466.827C682.402 471.476 679.924 475.772 675.899 478.096L636.387 500.908C632.362 503.232 627.402 503.23 623.378 500.903L583.794 478.007C579.78 475.685 577.307 471.401 577.303 466.764L577.267 421.035C577.263 416.387 579.741 412.091 583.767 409.767L623.278 386.955C627.303 384.631 632.263 384.633 636.287 386.96L675.871 409.856Z" fill="#FCD564"/>
<path d="M373.912 514.164C377.926 516.486 380.399 520.77 380.403 525.407L380.439 571.136C380.443 575.784 377.965 580.081 373.939 582.405L334.428 605.217C330.402 607.541 325.442 607.539 321.419 605.212L281.835 582.315C277.821 579.994 275.347 575.71 275.344 571.073L275.307 525.344C275.303 520.696 277.782 516.399 281.807 514.075L321.319 491.263C325.344 488.939 330.304 488.941 334.328 491.268L373.912 514.164Z" fill="#FCD564"/>
<path d="M434.558 619.206C438.572 621.528 441.045 625.812 441.049 630.449L441.085 676.178C441.089 680.826 438.611 685.123 434.585 687.447L395.074 710.259C391.048 712.583 386.088 712.581 382.065 710.254L342.481 687.357C338.467 685.036 335.993 680.752 335.99 676.115L335.953 630.386C335.949 625.738 338.428 621.441 342.453 619.117L381.965 596.305C385.99 593.981 390.95 593.983 394.974 596.31L434.558 619.206Z" fill="#FCD564"/>
<path d="M494.426 514.613C498.44 516.934 500.914 521.218 500.917 525.855L500.954 571.584C500.957 576.232 498.479 580.529 494.454 582.853L454.942 605.665C450.917 607.989 445.957 607.987 441.933 605.66L402.349 582.764C398.335 580.442 395.862 576.158 395.858 571.521L395.822 525.792C395.818 521.144 398.296 516.848 402.322 514.523L441.833 491.711C445.859 489.387 450.819 489.389 454.842 491.717L494.426 514.613Z" fill="#FCD564"/>
<path d="M917.185 200.505C921.199 202.827 923.673 207.111 923.676 211.748L923.713 257.477C923.717 262.125 921.238 266.421 917.213 268.746L877.701 291.558C873.676 293.882 868.716 293.88 864.692 291.552L825.108 268.656C821.094 266.335 818.621 262.051 818.617 257.414L818.581 211.685C818.577 207.037 821.055 202.74 825.081 200.416L864.592 177.604C868.618 175.28 873.578 175.282 877.601 177.609L917.185 200.505Z" fill="#FCD564"/>
<path d="M977.831 305.547C981.845 307.869 984.319 312.153 984.322 316.79L984.359 362.519C984.363 367.167 981.884 371.463 977.859 373.788L938.347 396.6C934.322 398.924 929.362 398.922 925.338 396.594L885.754 373.698C881.74 371.377 879.267 367.093 879.263 362.456L879.227 316.727C879.223 312.079 881.701 307.782 885.727 305.458L925.238 282.646C929.264 280.322 934.224 280.324 938.247 282.651L977.831 305.547Z" fill="#FCD564"/>
<path d="M1037.7 200.954C1041.71 203.276 1044.19 207.56 1044.19 212.197L1044.23 257.926C1044.23 262.574 1041.75 266.871 1037.73 269.195L998.216 292.007C994.191 294.331 989.231 294.329 985.207 292.002L945.623 269.106C941.609 266.784 939.136 262.5 939.132 257.863L939.096 212.134C939.092 207.486 941.57 203.189 945.596 200.865L985.107 178.053C989.133 175.729 994.093 175.731 998.116 178.058L1037.7 200.954Z" fill="#FCD564"/>
<path d="M735.74 305.262C739.754 307.584 742.228 311.868 742.231 316.505L742.268 362.234C742.272 366.882 739.793 371.178 735.768 373.502L696.256 396.314C692.231 398.638 687.271 398.636 683.247 396.309L643.663 373.413C639.649 371.091 637.176 366.807 637.172 362.17L637.136 316.442C637.132 311.793 639.61 307.497 643.636 305.173L683.147 282.361C687.173 280.037 692.133 280.039 696.156 282.366L735.74 305.262Z" fill="#FCD564"/>
<path d="M796.386 410.305C800.4 412.627 802.874 416.911 802.877 421.548L802.914 467.277C802.918 471.925 800.439 476.221 796.414 478.545L756.902 501.357C752.877 503.681 747.917 503.679 743.893 501.352L704.309 478.456C700.295 476.134 697.822 471.85 697.818 467.213L697.782 421.485C697.778 416.836 700.256 412.54 704.282 410.216L743.793 387.404C747.819 385.08 752.779 385.082 756.802 387.409L796.386 410.305Z" fill="#FCD564"/>
<path d="M856.255 305.711C860.269 308.033 862.743 312.317 862.746 316.954L862.783 362.683C862.787 367.331 860.308 371.628 856.283 373.952L816.771 396.764C812.746 399.088 807.786 399.086 803.762 396.758L764.178 373.862C760.164 371.541 757.691 367.257 757.687 362.62L757.651 316.891C757.647 312.243 760.125 307.946 764.151 305.622L803.662 282.81C807.688 280.486 812.648 280.488 816.671 282.815L856.255 305.711Z" fill="#FCD564"/>
<path d="M917.962 410.141C921.976 412.463 924.45 416.747 924.453 421.384L924.49 467.113C924.494 471.761 922.015 476.057 917.99 478.381L878.478 501.193C874.453 503.517 869.493 503.515 865.469 501.188L825.885 478.292C821.871 475.97 819.398 471.686 819.394 467.049L819.358 421.32C819.354 416.672 821.832 412.376 825.858 410.052L865.369 387.24C869.395 384.916 874.355 384.918 878.378 387.245L917.962 410.141Z" fill="#FCD564"/>
<path d="M978.608 515.183C982.622 517.505 985.096 521.789 985.099 526.426L985.136 572.155C985.14 576.803 982.661 581.099 978.636 583.423L939.124 606.235C935.099 608.559 930.139 608.557 926.115 606.23L886.531 583.334C882.517 581.012 880.044 576.728 880.04 572.091L880.004 526.362C880 521.714 882.478 517.418 886.504 515.094L926.015 492.282C930.041 489.958 935.001 489.96 939.024 492.287L978.608 515.183Z" fill="#FCD564"/>
<path d="M1038.48 410.589C1042.49 412.911 1044.96 417.195 1044.97 421.832L1045.01 467.561C1045.01 472.209 1042.53 476.505 1038.51 478.83L998.994 501.642C994.968 503.966 990.008 503.964 985.985 501.636L946.4 478.74C942.387 476.419 939.913 472.135 939.909 467.498L939.873 421.769C939.869 417.121 942.348 412.824 946.373 410.5L985.884 387.688C989.91 385.364 994.87 385.366 998.893 387.693L1038.48 410.589Z" fill="#FCD564"/>
<path d="M736.517 514.898C740.531 517.22 743.005 521.504 743.008 526.141L743.045 571.869C743.049 576.518 740.57 580.814 736.545 583.138L697.033 605.95C693.008 608.274 688.048 608.272 684.024 605.945L644.44 583.049C640.426 580.727 637.953 576.443 637.949 571.806L637.913 526.077C637.909 521.429 640.387 517.133 644.413 514.809L683.924 491.997C687.95 489.673 692.91 489.675 696.933 492.002L736.517 514.898Z" fill="#FCD564"/>
<path d="M797.164 619.94C801.177 622.262 803.651 626.546 803.655 631.183L803.691 676.911C803.695 681.56 801.217 685.856 797.191 688.18L757.68 710.992C753.654 713.316 748.694 713.314 744.671 710.987L705.087 688.091C701.073 685.769 698.599 681.485 698.596 676.848L698.559 631.119C698.555 626.471 701.034 622.175 705.059 619.851L744.571 597.039C748.596 594.715 753.556 594.717 757.58 597.044L797.164 619.94Z" fill="#FCD564"/>
<path d="M857.032 515.347C861.046 517.669 863.52 521.953 863.523 526.59L863.56 572.319C863.564 576.967 861.085 581.263 857.06 583.587L817.548 606.399C813.523 608.723 808.563 608.721 804.539 606.394L764.955 583.498C760.941 581.176 758.468 576.892 758.464 572.255L758.428 526.527C758.424 521.878 760.902 517.582 764.928 515.258L804.439 492.446C808.465 490.122 813.425 490.124 817.448 492.451L857.032 515.347Z" fill="#FCD564"/>
<path d="M1276.8 268.93C1280.81 266.615 1285.76 266.615 1289.78 268.93L1326.39 290.029C1330.42 292.35 1332.9 296.644 1332.9 301.292V343.449C1332.9 348.097 1330.42 352.391 1326.39 354.712L1289.78 375.811C1285.76 378.126 1280.81 378.126 1276.8 375.811L1240.18 354.712C1236.16 352.391 1233.67 348.097 1233.67 343.449V301.292C1233.67 296.644 1236.16 292.35 1240.18 290.029L1276.8 268.93Z" fill="#FCD564"/>
<path d="M1391.15 268.93C1395.17 266.615 1400.12 266.615 1404.13 268.93L1440.75 290.029C1444.77 292.35 1447.26 296.644 1447.26 301.292V343.449C1447.26 348.097 1444.77 352.391 1440.75 354.712L1404.13 375.811C1400.12 378.126 1395.17 378.126 1391.15 375.811L1354.54 354.712C1350.51 352.391 1348.03 348.097 1348.03 343.449V301.292C1348.03 296.644 1350.51 292.35 1354.54 290.029L1391.15 268.93Z" fill="#FCD564"/>
<path d="M1333.97 170.741C1337.99 168.425 1342.94 168.425 1346.96 170.741L1383.57 191.839C1387.6 194.16 1390.08 198.455 1390.08 203.103V245.259C1390.08 249.907 1387.6 254.202 1383.57 256.523L1346.96 277.621C1342.94 279.937 1337.99 279.937 1333.97 277.621L1297.36 256.523C1293.34 254.202 1290.85 249.907 1290.85 245.259V203.103C1290.85 198.455 1293.34 194.16 1297.36 191.839L1333.97 170.741Z" fill="#FCD564"/>
<path d="M1072.8 819.93C1076.81 817.615 1081.76 817.615 1085.78 819.93L1122.39 841.029C1126.42 843.35 1128.9 847.644 1128.9 852.292V894.449C1128.9 899.097 1126.42 903.391 1122.39 905.712L1085.78 926.811C1081.76 929.126 1076.81 929.126 1072.8 926.811L1036.18 905.712C1032.16 903.391 1029.67 899.097 1029.67 894.449V852.292C1029.67 847.644 1032.16 843.35 1036.18 841.029L1072.8 819.93Z" fill="#FCD564"/>
<path d="M1187.15 819.93C1191.17 817.615 1196.12 817.615 1200.13 819.93L1236.75 841.029C1240.77 843.35 1243.26 847.644 1243.26 852.292V894.449C1243.26 899.097 1240.77 903.391 1236.75 905.712L1200.13 926.811C1196.12 929.126 1191.17 929.126 1187.15 926.811L1150.54 905.712C1146.51 903.391 1144.03 899.097 1144.03 894.449V852.292C1144.03 847.644 1146.51 843.35 1150.54 841.029L1187.15 819.93Z" fill="#FCD564"/>
<path d="M1129.97 721.741C1133.99 719.425 1138.94 719.425 1142.96 721.741L1179.57 742.839C1183.6 745.16 1186.08 749.455 1186.08 754.103V796.259C1186.08 800.907 1183.6 805.202 1179.57 807.523L1142.96 828.621C1138.94 830.937 1133.99 830.937 1129.97 828.621L1093.36 807.523C1089.34 805.202 1086.85 800.907 1086.85 796.259V754.103C1086.85 749.455 1089.34 745.16 1093.36 742.839L1129.97 721.741Z" fill="#FCD564"/>
<path d="M50.7957 600.741C54.8133 598.425 59.76 598.425 63.7777 600.741L100.389 621.839C104.417 624.16 106.898 628.455 106.898 633.103V675.259C106.898 679.907 104.417 684.202 100.389 686.523L63.7777 707.621C59.76 709.937 54.8133 709.937 50.7957 707.621L14.184 686.523C10.1567 684.202 7.67496 679.907 7.67496 675.259V633.103C7.67496 628.455 10.1567 624.16 14.184 621.839L50.7957 600.741Z" fill="#FCD564"/>
</svg>
