
<svg width="903" height="900" viewBox="0 0 903 900" fill="none" xmlns="http://www.w3.org/2000/svg">
<path d="M411.312 212.887C415.8 214.055 419.325 217.525 420.564 221.993L436.046 277.824C437.288 282.302 436.044 287.103 432.783 290.415L392.214 331.616C388.953 334.928 384.171 336.247 379.672 335.076L323.593 320.476C319.105 319.307 315.579 315.837 314.34 311.37L298.859 255.539C297.617 251.06 298.861 246.259 302.122 242.947L342.691 201.746C345.952 198.434 350.734 197.115 355.233 198.286L411.312 212.887Z" fill="#FCD564"/>
<path d="M515.144 315.079C519.632 316.247 523.158 319.717 524.397 324.185L539.879 380.016C541.121 384.495 539.876 389.296 536.615 392.608L496.046 433.809C492.785 437.121 488.003 438.44 483.505 437.269L427.425 422.668C422.937 421.5 419.412 418.03 418.173 413.562L402.691 357.731C401.449 353.252 402.693 348.451 405.955 345.139L446.523 303.939C449.784 300.626 454.566 299.307 459.065 300.478L515.144 315.079Z" fill="#FCD564"/>
<path d="M550.993 174.849C555.481 176.018 559.007 179.488 560.245 183.956L575.727 239.787C576.969 244.265 575.725 249.066 572.464 252.378L531.895 293.579C528.634 296.891 523.852 298.21 519.353 297.039L463.274 282.439C458.786 281.27 455.26 277.8 454.021 273.332L438.54 217.502C437.298 213.023 438.542 208.222 441.803 204.91L482.372 163.709C485.633 160.397 490.415 159.078 494.914 160.249L550.993 174.849Z" fill="#FCD564"/>
<path d="M234.749 392.201C239.237 393.369 242.763 396.839 244.002 401.307L259.484 457.138C260.726 461.617 259.481 466.418 256.22 469.73L215.651 510.931C212.39 514.243 207.608 515.562 203.11 514.391L147.03 499.79C142.542 498.622 139.017 495.152 137.778 490.684L122.296 434.853C121.054 430.374 122.298 425.573 125.56 422.261L166.128 381.061C169.389 377.749 174.171 376.429 178.67 377.601L234.749 392.201Z" fill="#FCD564"/>
<path d="M338.582 494.394C343.069 495.563 346.595 499.033 347.834 503.501L363.316 559.332C364.558 563.81 363.313 568.611 360.052 571.923L319.484 613.124C316.222 616.436 311.441 617.755 306.942 616.584L250.862 601.984C246.375 600.815 242.849 597.345 241.61 592.877L226.128 537.046C224.886 532.568 226.131 527.767 229.392 524.455L269.96 483.254C273.222 479.942 278.003 478.623 282.502 479.794L338.582 494.394Z" fill="#FCD564"/>
<path d="M374.431 354.164C378.918 355.332 382.444 358.802 383.683 363.27L399.165 419.101C400.407 423.58 399.162 428.381 395.901 431.693L355.333 472.894C352.071 476.206 347.29 477.525 342.791 476.354L286.711 461.753C282.224 460.585 278.698 457.115 277.459 452.647L261.977 396.816C260.735 392.337 261.98 387.536 265.241 384.224L305.809 343.023C309.071 339.711 313.852 338.392 318.351 339.563L374.431 354.164Z" fill="#FCD564"/>
<path d="M479.295 455.308C483.783 456.477 487.309 459.947 488.548 464.415L504.03 520.246C505.272 524.724 504.027 529.525 500.766 532.837L460.197 574.038C456.936 577.35 452.154 578.669 447.656 577.498L391.576 562.898C387.088 561.729 383.563 558.259 382.324 553.791L366.842 497.961C365.6 493.482 366.844 488.681 370.106 485.369L410.674 444.168C413.935 440.856 418.717 439.537 423.216 440.708L479.295 455.308Z" fill="#FCD564"/>
<path d="M583.128 557.502C587.616 558.67 591.141 562.14 592.38 566.608L607.862 622.439C609.104 626.918 607.86 631.719 604.598 635.031L564.03 676.231C560.769 679.544 555.987 680.863 551.488 679.691L495.409 665.091C490.921 663.923 487.395 660.453 486.156 655.985L470.674 600.154C469.432 595.675 470.677 590.874 473.938 587.562L514.507 546.361C517.768 543.049 522.55 541.73 527.048 542.901L583.128 557.502Z" fill="#FCD564"/>
<path d="M618.977 417.272C623.465 418.441 626.99 421.911 628.229 426.379L643.711 482.209C644.953 486.688 643.709 491.489 640.447 494.801L599.879 536.002C596.618 539.314 591.836 540.633 587.337 539.462L531.258 524.862C526.77 523.693 523.244 520.223 522.005 515.755L506.523 459.924C505.281 455.446 506.526 450.645 509.787 447.333L550.355 406.132C553.617 402.82 558.399 401.501 562.897 402.672L618.977 417.272Z" fill="#FCD564"/>
<path d="M302.733 634.623C307.221 635.791 310.746 639.261 311.985 643.729L327.467 699.56C328.709 704.039 327.465 708.84 324.203 712.152L283.635 753.353C280.374 756.665 275.592 757.984 271.093 756.813L215.014 742.212C210.526 741.044 207 737.574 205.761 733.106L190.28 677.275C189.038 672.796 190.282 667.995 193.543 664.683L234.112 623.482C237.373 620.17 242.155 618.851 246.653 620.022L302.733 634.623Z" fill="#FCD564"/>
<path d="M406.565 736.816C411.053 737.985 414.579 741.455 415.817 745.923L431.299 801.753C432.541 806.232 431.297 811.033 428.036 814.345L387.467 855.546C384.206 858.858 379.424 860.177 374.925 859.006L318.846 844.406C314.358 843.237 310.832 839.767 309.593 835.299L294.112 779.468C292.87 774.99 294.114 770.189 297.375 766.877L337.944 725.676C341.205 722.364 345.987 721.045 350.486 722.216L406.565 736.816Z" fill="#FCD564"/>
<path d="M442.414 596.587C446.902 597.755 450.428 601.225 451.667 605.693L467.148 661.524C468.39 666.003 467.146 670.804 463.885 674.116L423.316 715.316C420.055 718.628 415.273 719.948 410.775 718.776L354.695 704.176C350.207 703.008 346.682 699.538 345.443 695.07L329.961 639.239C328.719 634.76 329.963 629.959 333.224 626.647L373.793 585.446C377.054 582.134 381.836 580.815 386.335 581.986L442.414 596.587Z" fill="#FCD564"/>
<path d="M831.389 97.7273C835.877 98.8958 839.402 102.366 840.641 106.834L856.123 162.665C857.365 167.143 856.121 171.944 852.859 175.256L812.291 216.457C809.03 219.769 804.248 221.088 799.749 219.917L743.67 205.317C739.182 204.148 735.656 200.678 734.417 196.21L718.936 140.379C717.694 135.901 718.938 131.1 722.199 127.788L762.768 86.587C766.029 83.2749 770.811 81.9557 775.309 83.1269L831.389 97.7273Z" fill="#FCD564"/>
<path d="M935.221 199.92C939.709 201.088 943.235 204.558 944.473 209.026L959.955 264.857C961.197 269.336 959.953 274.137 956.692 277.449L916.123 318.649C912.862 321.961 908.08 323.281 903.581 322.109L847.502 307.509C843.014 306.341 839.488 302.871 838.249 298.403L822.768 242.572C821.526 238.093 822.77 233.292 826.031 229.98L866.6 188.779C869.861 185.467 874.643 184.148 879.142 185.319L935.221 199.92Z" fill="#FCD564"/>
<path d="M971.07 59.6912C975.558 60.8596 979.084 64.3295 980.323 68.7975L995.804 124.628C997.046 129.107 995.802 133.908 992.541 137.22L951.972 178.421C948.711 181.733 943.929 183.052 939.431 181.881L883.351 167.281C878.863 166.112 875.338 162.642 874.099 158.174L858.617 102.343C857.375 97.8646 858.619 93.0637 861.88 89.7517L902.449 48.5508C905.71 45.2388 910.492 43.9195 914.991 45.0908L971.07 59.6912Z" fill="#FCD564"/>
<path d="M654.825 277.043C659.313 278.211 662.839 281.681 664.078 286.149L679.56 341.98C680.802 346.459 679.557 351.26 676.296 354.572L635.728 395.772C632.466 399.085 627.684 400.404 623.186 399.233L567.106 384.632C562.618 383.464 559.093 379.994 557.854 375.526L542.372 319.695C541.13 315.216 542.374 310.415 545.636 307.103L586.204 265.902C589.465 262.59 594.247 261.271 598.746 262.442L654.825 277.043Z" fill="#FCD564"/>
<path d="M758.658 379.235C763.146 380.404 766.671 383.873 767.91 388.341L783.392 444.172C784.634 448.651 783.39 453.452 780.128 456.764L739.56 497.965C736.299 501.277 731.517 502.596 727.018 501.425L670.939 486.824C666.451 485.656 662.925 482.186 661.686 477.718L646.204 421.887C644.963 417.409 646.207 412.608 649.468 409.296L690.037 368.095C693.298 364.783 698.08 363.463 702.578 364.635L758.658 379.235Z" fill="#FCD564"/>
<path d="M794.508 239.006C798.996 240.174 802.521 243.644 803.76 248.112L819.242 303.943C820.484 308.422 819.24 313.222 815.978 316.535L775.41 357.735C772.149 361.047 767.367 362.367 762.868 361.195L706.789 346.595C702.301 345.427 698.775 341.957 697.536 337.489L682.054 281.658C680.812 277.179 682.057 272.378 685.318 269.066L725.886 227.865C729.148 224.553 733.93 223.234 738.428 224.405L794.508 239.006Z" fill="#FCD564"/>
<path d="M899.372 340.15C903.86 341.319 907.386 344.789 908.625 349.256L924.107 405.087C925.349 409.566 924.104 414.367 920.843 417.679L880.275 458.88C877.013 462.192 872.231 463.511 867.733 462.34L811.653 447.74C807.165 446.571 803.64 443.101 802.401 438.633L786.919 382.802C785.677 378.324 786.921 373.523 790.183 370.211L830.751 329.01C834.012 325.698 838.794 324.379 843.293 325.55L899.372 340.15Z" fill="#FCD564"/>
<path d="M1003.2 442.342C1007.69 443.51 1011.22 446.98 1012.46 451.448L1027.94 507.279C1029.18 511.758 1027.94 516.558 1024.68 519.87L984.107 561.071C980.846 564.383 976.064 565.703 971.565 564.531L915.486 549.931C910.998 548.762 907.472 545.293 906.233 540.825L890.751 484.994C889.51 480.515 890.754 475.714 894.015 472.402L934.584 431.201C937.845 427.889 942.627 426.57 947.125 427.741L1003.2 442.342Z" fill="#FCD564"/>
<path d="M1039.05 302.113C1043.54 303.281 1047.07 306.751 1048.31 311.219L1063.79 367.05C1065.03 371.529 1063.79 376.33 1060.52 379.642L1019.96 420.843C1016.69 424.155 1011.91 425.474 1007.41 424.303L951.334 409.702C946.846 408.534 943.321 405.064 942.082 400.596L926.6 344.765C925.358 340.286 926.602 335.486 929.864 332.174L970.432 290.973C973.693 287.661 978.475 286.341 982.974 287.513L1039.05 302.113Z" fill="#FCD564"/>
<path d="M722.809 519.465C727.297 520.633 730.823 524.103 732.062 528.571L747.543 584.402C748.785 588.881 747.541 593.681 744.28 596.994L703.711 638.194C700.45 641.506 695.668 642.826 691.17 641.654L635.09 627.054C630.602 625.886 627.077 622.416 625.838 617.948L610.356 562.117C609.114 557.638 610.358 552.837 613.619 549.525L654.188 508.324C657.449 505.012 662.231 503.693 666.73 504.864L722.809 519.465Z" fill="#FCD564"/>
<path d="M826.641 621.657C831.129 622.825 834.655 626.295 835.894 630.763L851.375 686.594C852.617 691.073 851.373 695.874 848.112 699.186L807.543 740.387C804.282 743.699 799.5 745.018 795.002 743.847L738.922 729.246C734.434 728.078 730.909 724.608 729.67 720.14L714.188 664.309C712.946 659.83 714.19 655.03 717.452 651.717L758.02 610.517C761.281 607.205 766.063 605.885 770.562 607.057L826.641 621.657Z" fill="#FCD564"/>
<path d="M862.49 481.428C866.978 482.596 870.503 486.066 871.742 490.534L887.224 546.365C888.466 550.843 887.222 555.644 883.961 558.956L843.392 600.157C840.131 603.469 835.349 604.789 830.85 603.617L774.771 589.017C770.283 587.848 766.757 584.379 765.518 579.911L750.037 524.08C748.795 519.601 750.039 514.8 753.3 511.488L793.869 470.287C797.13 466.975 801.912 465.656 806.411 466.827L862.49 481.428Z" fill="#FCD564"/>
<path d="M249.886 103.32C253.285 100.167 258.106 99.0637 262.539 100.423L314.384 116.326C318.829 117.69 322.207 121.322 323.245 125.853L335.323 178.586C336.361 183.117 334.9 187.858 331.492 191.019L291.735 227.893C288.336 231.046 283.515 232.149 279.082 230.79L227.236 214.887C222.792 213.523 219.414 209.891 218.376 205.36L206.298 152.627C205.26 148.096 206.721 143.356 210.129 140.195L249.886 103.32Z" fill="#FCD564"/>
<path d="M384.67 72.4636C388.069 69.311 392.89 68.2073 397.323 69.5669L449.168 85.47C453.613 86.8333 456.991 90.4657 458.029 94.997L470.107 147.73C471.145 152.261 469.684 157.001 466.276 160.162L426.518 197.037C423.119 200.189 418.298 201.293 413.866 199.933L362.02 184.03C357.576 182.667 354.197 179.035 353.16 174.503L341.082 121.771C340.044 117.239 341.504 112.499 344.913 109.338L384.67 72.4636Z" fill="#FCD564"/>
<path d="M290.777 -27.8108C294.177 -30.9634 298.998 -32.0671 303.43 -30.7075L355.276 -14.8044C359.72 -13.4411 363.099 -9.80867 364.136 -5.27744L376.214 47.4552C377.252 51.9864 375.792 56.7268 372.383 59.8878L332.626 96.7623C329.227 99.9149 324.406 101.019 319.973 99.659L268.128 83.7559C263.683 82.3926 260.305 78.7601 259.267 74.2289L247.189 21.4963C246.151 16.965 247.612 12.2247 251.02 9.0637L290.777 -27.8108Z" fill="#FCD564"/>
</svg>
