<svg width="1362" height="900" viewBox="0 0 1362 900" fill="none" xmlns="http://www.w3.org/2000/svg">
<g opacity="0.5" filter="url(#filter0_i)">
<path d="M573.579 224.772C577.593 227.094 580.066 231.378 580.07 236.015L580.106 281.743C580.11 286.392 577.632 290.688 573.606 293.012L534.095 315.824C530.069 318.148 525.109 318.146 521.086 315.819L481.502 292.923C477.488 290.601 475.015 286.317 475.011 281.68L474.974 235.951C474.971 231.303 477.449 227.007 481.474 224.683L520.986 201.871C525.011 199.547 529.971 199.549 533.995 201.876L573.579 224.772Z" fill="#FCD564"/>
</g>
<g opacity="0.5" filter="url(#filter1_i)">
<path d="M634.225 329.814C638.239 332.136 640.712 336.42 640.716 341.057L640.753 386.785C640.756 391.434 638.278 395.73 634.253 398.054L594.741 420.866C590.716 423.19 585.756 423.188 581.732 420.861L542.148 397.965C538.134 395.643 535.661 391.359 535.657 386.722L535.621 340.993C535.617 336.345 538.095 332.049 542.121 329.725L581.632 306.913C585.657 304.589 590.617 304.591 594.641 306.918L634.225 329.814Z" fill="#FCD564"/>
</g>
<g opacity="0.5" filter="url(#filter2_i)">
<path d="M694.094 225.22C698.108 227.542 700.582 231.826 700.585 236.463L700.622 282.192C700.625 286.84 698.147 291.136 694.122 293.46L654.61 316.272C650.585 318.596 645.625 318.594 641.601 316.267L602.017 293.371C598.003 291.049 595.53 286.765 595.526 282.128L595.49 236.4C595.486 231.751 597.964 227.455 601.99 225.131L641.501 202.319C645.527 199.995 650.487 199.997 654.51 202.324L694.094 225.22Z" fill="#FCD564"/>
</g>
<g opacity="0.5" filter="url(#filter3_i)">
<path d="M392.134 329.529C396.148 331.85 398.622 336.134 398.625 340.771L398.662 386.5C398.666 391.148 396.187 395.445 392.162 397.769L352.65 420.581C348.625 422.905 343.665 422.903 339.641 420.576L300.057 397.68C296.043 395.358 293.57 391.074 293.566 386.437L293.53 340.708C293.526 336.06 296.004 331.764 300.03 329.439L339.541 306.627C343.567 304.303 348.527 304.305 352.55 306.633L392.134 329.529Z" fill="#FCD564"/>
</g>
<g opacity="0.5" filter="url(#filter4_i)">
<path d="M452.78 434.571C456.794 436.892 459.268 441.176 459.271 445.813L459.308 491.542C459.311 496.19 456.833 500.487 452.808 502.811L413.296 525.623C409.271 527.947 404.311 527.945 400.287 525.618L360.703 502.722C356.689 500.4 354.216 496.116 354.212 491.479L354.176 445.75C354.172 441.102 356.65 436.806 360.676 434.481L400.187 411.669C404.213 409.345 409.173 409.347 413.196 411.675L452.78 434.571Z" fill="#FCD564"/>
</g>
<g opacity="0.5" filter="url(#filter5_i)">
<path d="M512.649 329.977C516.663 332.299 519.136 336.583 519.14 341.22L519.176 386.949C519.18 391.597 516.702 395.893 512.676 398.217L473.165 421.029C469.139 423.353 464.179 423.351 460.156 421.024L420.572 398.128C416.558 395.806 414.085 391.522 414.081 386.885L414.044 341.156C414.041 336.508 416.519 332.212 420.544 329.888L460.056 307.076C464.081 304.752 469.041 304.754 473.065 307.081L512.649 329.977Z" fill="#FCD564"/>
</g>
<g opacity="0.5" filter="url(#filter6_i)">
<path d="M574.356 434.407C578.37 436.728 580.843 441.012 580.847 445.649L580.884 491.378C580.887 496.026 578.409 500.323 574.384 502.647L534.872 525.459C530.847 527.783 525.887 527.781 521.863 525.454L482.279 502.558C478.265 500.236 475.792 495.952 475.788 491.315L475.752 445.586C475.748 440.938 478.226 436.641 482.252 434.317L521.763 411.505C525.789 409.181 530.749 409.183 534.772 411.511L574.356 434.407Z" fill="#FCD564"/>
</g>
<g opacity="0.5" filter="url(#filter7_i)">
<path d="M635.002 539.449C639.016 541.77 641.49 546.054 641.493 550.691L641.53 596.42C641.534 601.068 639.055 605.365 635.03 607.689L595.518 630.501C591.493 632.825 586.533 632.823 582.509 630.496L542.925 607.6C538.911 605.278 536.438 600.994 536.434 596.357L536.398 550.628C536.394 545.98 538.872 541.683 542.898 539.359L582.409 516.547C586.435 514.223 591.395 514.225 595.418 516.553L635.002 539.449Z" fill="#FCD564"/>
</g>
<g opacity="0.5" filter="url(#filter8_i)">
<path d="M694.871 434.856C698.885 437.178 701.358 441.462 701.362 446.099L701.399 491.827C701.402 496.476 698.924 500.772 694.899 503.096L655.387 525.908C651.362 528.232 646.402 528.23 642.378 525.903L602.794 503.007C598.78 500.685 596.307 496.401 596.303 491.764L596.267 446.035C596.263 441.387 598.741 437.091 602.766 434.767L642.278 411.955C646.303 409.631 651.263 409.633 655.287 411.96L694.871 434.856Z" fill="#FCD564"/>
</g>
<g opacity="0.5" filter="url(#filter9_i)">
<path d="M392.912 539.164C396.926 541.486 399.399 545.77 399.403 550.407L399.439 596.136C399.443 600.784 396.965 605.081 392.939 607.405L353.428 630.217C349.402 632.541 344.442 632.539 340.419 630.212L300.835 607.315C296.821 604.994 294.347 600.71 294.344 596.073L294.307 550.344C294.303 545.696 296.782 541.399 300.807 539.075L340.319 516.263C344.344 513.939 349.304 513.941 353.328 516.268L392.912 539.164Z" fill="#FCD564"/>
</g>
<g opacity="0.5" filter="url(#filter10_i)">
<path d="M453.558 644.206C457.572 646.528 460.045 650.812 460.049 655.449L460.085 701.178C460.089 705.826 457.611 710.123 453.585 712.447L414.074 735.259C410.048 737.583 405.088 737.581 401.065 735.254L361.481 712.357C357.467 710.036 354.993 705.752 354.99 701.115L354.953 655.386C354.949 650.738 357.428 646.441 361.453 644.117L400.965 621.305C404.99 618.981 409.95 618.983 413.974 621.31L453.558 644.206Z" fill="#FCD564"/>
</g>
<g opacity="0.5" filter="url(#filter11_i)">
<path d="M513.426 539.613C517.44 541.934 519.914 546.218 519.917 550.855L519.954 596.584C519.957 601.232 517.479 605.529 513.454 607.853L473.942 630.665C469.917 632.989 464.957 632.987 460.933 630.66L421.349 607.764C417.335 605.442 414.862 601.158 414.858 596.521L414.822 550.792C414.818 546.144 417.296 541.848 421.322 539.523L460.833 516.711C464.859 514.387 469.819 514.389 473.842 516.717L513.426 539.613Z" fill="#FCD564"/>
</g>
<g opacity="0.5" filter="url(#filter12_i)">
<path d="M936.185 225.505C940.199 227.827 942.673 232.111 942.676 236.748L942.713 282.477C942.717 287.125 940.238 291.421 936.213 293.746L896.701 316.558C892.676 318.882 887.716 318.88 883.692 316.552L844.108 293.656C840.094 291.335 837.621 287.051 837.617 282.414L837.581 236.685C837.577 232.037 840.055 227.74 844.081 225.416L883.592 202.604C887.618 200.28 892.578 200.282 896.601 202.609L936.185 225.505Z" fill="#FCD564"/>
</g>
<g opacity="0.5" filter="url(#filter13_i)">
<path d="M996.831 330.547C1000.85 332.869 1003.32 337.153 1003.32 341.79L1003.36 387.519C1003.36 392.167 1000.88 396.463 996.859 398.788L957.347 421.6C953.322 423.924 948.362 423.922 944.338 421.594L904.754 398.698C900.74 396.377 898.267 392.093 898.263 387.456L898.227 341.727C898.223 337.079 900.701 332.782 904.727 330.458L944.238 307.646C948.264 305.322 953.224 305.324 957.247 307.651L996.831 330.547Z" fill="#FCD564"/>
</g>
<g opacity="0.5" filter="url(#filter14_i)">
<path d="M1056.7 225.954C1060.71 228.276 1063.19 232.56 1063.19 237.197L1063.23 282.926C1063.23 287.574 1060.75 291.871 1056.73 294.195L1017.22 317.007C1013.19 319.331 1008.23 319.329 1004.21 317.002L964.623 294.106C960.609 291.784 958.136 287.5 958.132 282.863L958.096 237.134C958.092 232.486 960.57 228.189 964.596 225.865L1004.11 203.053C1008.13 200.729 1013.09 200.731 1017.12 203.058L1056.7 225.954Z" fill="#FCD564"/>
</g>
<g opacity="0.5" filter="url(#filter15_i)">
<path d="M754.74 330.262C758.754 332.584 761.228 336.868 761.231 341.505L761.268 387.234C761.272 391.882 758.793 396.178 754.768 398.502L715.256 421.314C711.231 423.638 706.271 423.636 702.247 421.309L662.663 398.413C658.649 396.091 656.176 391.807 656.172 387.17L656.136 341.442C656.132 336.793 658.61 332.497 662.636 330.173L702.147 307.361C706.173 305.037 711.133 305.039 715.156 307.366L754.74 330.262Z" fill="#FCD564"/>
</g>
<g opacity="0.5" filter="url(#filter16_i)">
<path d="M815.386 435.305C819.4 437.627 821.874 441.911 821.877 446.548L821.914 492.277C821.918 496.925 819.439 501.221 815.414 503.545L775.902 526.357C771.877 528.681 766.917 528.679 762.893 526.352L723.309 503.456C719.295 501.134 716.822 496.85 716.818 492.213L716.782 446.485C716.778 441.836 719.256 437.54 723.282 435.216L762.793 412.404C766.819 410.08 771.779 410.082 775.802 412.409L815.386 435.305Z" fill="#FCD564"/>
</g>
<g opacity="0.5" filter="url(#filter17_i)">
<path d="M875.255 330.711C879.269 333.033 881.743 337.317 881.746 341.954L881.783 387.683C881.787 392.331 879.308 396.628 875.283 398.952L835.771 421.764C831.746 424.088 826.786 424.086 822.762 421.758L783.178 398.862C779.164 396.541 776.691 392.257 776.687 387.62L776.651 341.891C776.647 337.243 779.125 332.946 783.151 330.622L822.662 307.81C826.688 305.486 831.648 305.488 835.671 307.815L875.255 330.711Z" fill="#FCD564"/>
</g>
<g opacity="0.5" filter="url(#filter18_i)">
<path d="M936.962 435.141C940.976 437.463 943.45 441.747 943.453 446.384L943.49 492.113C943.494 496.761 941.015 501.057 936.99 503.381L897.478 526.193C893.453 528.517 888.493 528.515 884.469 526.188L844.885 503.292C840.871 500.97 838.398 496.686 838.394 492.049L838.358 446.32C838.354 441.672 840.832 437.376 844.858 435.052L884.369 412.24C888.395 409.916 893.355 409.918 897.378 412.245L936.962 435.141Z" fill="#FCD564"/>
</g>
<g opacity="0.5" filter="url(#filter19_i)">
<path d="M997.608 540.183C1001.62 542.505 1004.1 546.789 1004.1 551.426L1004.14 597.155C1004.14 601.803 1001.66 606.099 997.636 608.423L958.124 631.235C954.099 633.559 949.139 633.557 945.115 631.23L905.531 608.334C901.517 606.012 899.044 601.728 899.04 597.091L899.004 551.362C899 546.714 901.478 542.418 905.504 540.094L945.015 517.282C949.041 514.958 954.001 514.96 958.024 517.287L997.608 540.183Z" fill="#FCD564"/>
</g>
<g opacity="0.5" filter="url(#filter20_i)">
<path d="M1057.48 435.589C1061.49 437.911 1063.96 442.195 1063.97 446.832L1064.01 492.561C1064.01 497.209 1061.53 501.505 1057.51 503.83L1017.99 526.642C1013.97 528.966 1009.01 528.964 1004.98 526.636L965.4 503.74C961.387 501.419 958.913 497.135 958.909 492.498L958.873 446.769C958.869 442.121 961.348 437.824 965.373 435.5L1004.88 412.688C1008.91 410.364 1013.87 410.366 1017.89 412.693L1057.48 435.589Z" fill="#FCD564"/>
</g>
<g opacity="0.5" filter="url(#filter21_i)">
<path d="M755.517 539.898C759.531 542.22 762.005 546.504 762.008 551.141L762.045 596.869C762.049 601.518 759.57 605.814 755.545 608.138L716.033 630.95C712.008 633.274 707.048 633.272 703.024 630.945L663.44 608.049C659.426 605.727 656.953 601.443 656.949 596.806L656.913 551.077C656.909 546.429 659.387 542.133 663.413 539.809L702.924 516.997C706.95 514.673 711.91 514.675 715.933 517.002L755.517 539.898Z" fill="#FCD564"/>
</g>
<g opacity="0.5" filter="url(#filter22_i)">
<path d="M816.164 644.94C820.177 647.262 822.651 651.546 822.655 656.183L822.691 701.911C822.695 706.56 820.217 710.856 816.191 713.18L776.68 735.992C772.654 738.316 767.694 738.314 763.671 735.987L724.087 713.091C720.073 710.769 717.599 706.485 717.596 701.848L717.559 656.119C717.555 651.471 720.034 647.175 724.059 644.851L763.571 622.039C767.596 619.715 772.556 619.717 776.58 622.044L816.164 644.94Z" fill="#FCD564"/>
</g>
<g opacity="0.5" filter="url(#filter23_i)">
<path d="M876.032 540.347C880.046 542.669 882.52 546.953 882.523 551.59L882.56 597.319C882.564 601.967 880.085 606.263 876.06 608.587L836.548 631.399C832.523 633.723 827.563 633.721 823.539 631.394L783.955 608.498C779.941 606.176 777.468 601.892 777.464 597.255L777.428 551.527C777.424 546.878 779.902 542.582 783.928 540.258L823.439 517.446C827.465 515.122 832.425 515.124 836.448 517.451L876.032 540.347Z" fill="#FCD564"/>
</g>
<path d="M1276.8 268.93C1280.81 266.615 1285.76 266.615 1289.78 268.93L1326.39 290.029C1330.42 292.35 1332.9 296.644 1332.9 301.292V343.449C1332.9 348.097 1330.42 352.391 1326.39 354.712L1289.78 375.811C1285.76 378.126 1280.81 378.126 1276.8 375.811L1240.18 354.712C1236.16 352.391 1233.67 348.097 1233.67 343.449V301.292C1233.67 296.644 1236.16 292.35 1240.18 290.029L1276.8 268.93Z" fill="#FCD564"/>
<path d="M1391.15 268.93C1395.17 266.615 1400.12 266.615 1404.13 268.93L1440.75 290.029C1444.77 292.35 1447.26 296.644 1447.26 301.292V343.449C1447.26 348.097 1444.77 352.391 1440.75 354.712L1404.13 375.811C1400.12 378.126 1395.17 378.126 1391.15 375.811L1354.54 354.712C1350.51 352.391 1348.03 348.097 1348.03 343.449V301.292C1348.03 296.644 1350.51 292.35 1354.54 290.029L1391.15 268.93Z" fill="#FCD564"/>
<path d="M1333.97 170.741C1337.99 168.425 1342.94 168.425 1346.96 170.741L1383.57 191.839C1387.6 194.16 1390.08 198.455 1390.08 203.103V245.259C1390.08 249.907 1387.6 254.202 1383.57 256.523L1346.96 277.621C1342.94 279.937 1337.99 279.937 1333.97 277.621L1297.36 256.523C1293.34 254.202 1290.85 249.907 1290.85 245.259V203.103C1290.85 198.455 1293.34 194.16 1297.36 191.839L1333.97 170.741Z" fill="#FCD564"/>
<path d="M50.7957 600.741C54.8133 598.425 59.76 598.425 63.7777 600.741L100.389 621.839C104.417 624.16 106.898 628.455 106.898 633.103V675.259C106.898 679.907 104.417 684.202 100.389 686.523L63.7777 707.621C59.76 709.937 54.8133 709.937 50.7957 707.621L14.184 686.523C10.1567 684.202 7.67496 679.907 7.67496 675.259V633.103C7.67496 628.455 10.1567 624.16 14.184 621.839L50.7957 600.741Z" fill="#FCD564"/>
<defs>
<filter id="filter0_i" x="450.442" y="183.954" width="154.196" height="153.786" filterUnits="userSpaceOnUse" color-interpolation-filters="sRGB">
<feFlood flood-opacity="0" result="BackgroundImageFix"/>
<feBlend mode="normal" in="SourceGraphic" in2="BackgroundImageFix" result="shape"/>
<feColorMatrix in="SourceAlpha" type="matrix" values="0 0 0 0 0 0 0 0 0 0 0 0 0 0 0 0 0 0 127 0" result="hardAlpha"/>
<feOffset dy="4"/>
<feGaussianBlur stdDeviation="2"/>
<feComposite in2="hardAlpha" operator="arithmetic" k2="-1" k3="1"/>
<feColorMatrix type="matrix" values="0 0 0 0 0 0 0 0 0 0 0 0 0 0 0 0 0 0 0.25 0"/>
<feBlend mode="normal" in2="shape" result="effect1_innerShadow"/>
</filter>
<filter id="filter1_i" x="511.088" y="288.996" width="154.196" height="153.786" filterUnits="userSpaceOnUse" color-interpolation-filters="sRGB">
<feFlood flood-opacity="0" result="BackgroundImageFix"/>
<feBlend mode="normal" in="SourceGraphic" in2="BackgroundImageFix" result="shape"/>
<feColorMatrix in="SourceAlpha" type="matrix" values="0 0 0 0 0 0 0 0 0 0 0 0 0 0 0 0 0 0 127 0" result="hardAlpha"/>
<feOffset dy="4"/>
<feGaussianBlur stdDeviation="2"/>
<feComposite in2="hardAlpha" operator="arithmetic" k2="-1" k3="1"/>
<feColorMatrix type="matrix" values="0 0 0 0 0 0 0 0 0 0 0 0 0 0 0 0 0 0 0.25 0"/>
<feBlend mode="normal" in2="shape" result="effect1_innerShadow"/>
</filter>
<filter id="filter2_i" x="570.958" y="184.402" width="154.196" height="153.786" filterUnits="userSpaceOnUse" color-interpolation-filters="sRGB">
<feFlood flood-opacity="0" result="BackgroundImageFix"/>
<feBlend mode="normal" in="SourceGraphic" in2="BackgroundImageFix" result="shape"/>
<feColorMatrix in="SourceAlpha" type="matrix" values="0 0 0 0 0 0 0 0 0 0 0 0 0 0 0 0 0 0 127 0" result="hardAlpha"/>
<feOffset dy="4"/>
<feGaussianBlur stdDeviation="2"/>
<feComposite in2="hardAlpha" operator="arithmetic" k2="-1" k3="1"/>
<feColorMatrix type="matrix" values="0 0 0 0 0 0 0 0 0 0 0 0 0 0 0 0 0 0 0.25 0"/>
<feBlend mode="normal" in2="shape" result="effect1_innerShadow"/>
</filter>
<filter id="filter3_i" x="268.998" y="288.711" width="154.196" height="153.786" filterUnits="userSpaceOnUse" color-interpolation-filters="sRGB">
<feFlood flood-opacity="0" result="BackgroundImageFix"/>
<feBlend mode="normal" in="SourceGraphic" in2="BackgroundImageFix" result="shape"/>
<feColorMatrix in="SourceAlpha" type="matrix" values="0 0 0 0 0 0 0 0 0 0 0 0 0 0 0 0 0 0 127 0" result="hardAlpha"/>
<feOffset dy="4"/>
<feGaussianBlur stdDeviation="2"/>
<feComposite in2="hardAlpha" operator="arithmetic" k2="-1" k3="1"/>
<feColorMatrix type="matrix" values="0 0 0 0 0 0 0 0 0 0 0 0 0 0 0 0 0 0 0.25 0"/>
<feBlend mode="normal" in2="shape" result="effect1_innerShadow"/>
</filter>
<filter id="filter4_i" x="329.644" y="393.753" width="154.196" height="153.786" filterUnits="userSpaceOnUse" color-interpolation-filters="sRGB">
<feFlood flood-opacity="0" result="BackgroundImageFix"/>
<feBlend mode="normal" in="SourceGraphic" in2="BackgroundImageFix" result="shape"/>
<feColorMatrix in="SourceAlpha" type="matrix" values="0 0 0 0 0 0 0 0 0 0 0 0 0 0 0 0 0 0 127 0" result="hardAlpha"/>
<feOffset dy="4"/>
<feGaussianBlur stdDeviation="2"/>
<feComposite in2="hardAlpha" operator="arithmetic" k2="-1" k3="1"/>
<feColorMatrix type="matrix" values="0 0 0 0 0 0 0 0 0 0 0 0 0 0 0 0 0 0 0.25 0"/>
<feBlend mode="normal" in2="shape" result="effect1_innerShadow"/>
</filter>
<filter id="filter5_i" x="389.512" y="289.159" width="154.196" height="153.786" filterUnits="userSpaceOnUse" color-interpolation-filters="sRGB">
<feFlood flood-opacity="0" result="BackgroundImageFix"/>
<feBlend mode="normal" in="SourceGraphic" in2="BackgroundImageFix" result="shape"/>
<feColorMatrix in="SourceAlpha" type="matrix" values="0 0 0 0 0 0 0 0 0 0 0 0 0 0 0 0 0 0 127 0" result="hardAlpha"/>
<feOffset dy="4"/>
<feGaussianBlur stdDeviation="2"/>
<feComposite in2="hardAlpha" operator="arithmetic" k2="-1" k3="1"/>
<feColorMatrix type="matrix" values="0 0 0 0 0 0 0 0 0 0 0 0 0 0 0 0 0 0 0.25 0"/>
<feBlend mode="normal" in2="shape" result="effect1_innerShadow"/>
</filter>
<filter id="filter6_i" x="451.219" y="393.589" width="154.196" height="153.786" filterUnits="userSpaceOnUse" color-interpolation-filters="sRGB">
<feFlood flood-opacity="0" result="BackgroundImageFix"/>
<feBlend mode="normal" in="SourceGraphic" in2="BackgroundImageFix" result="shape"/>
<feColorMatrix in="SourceAlpha" type="matrix" values="0 0 0 0 0 0 0 0 0 0 0 0 0 0 0 0 0 0 127 0" result="hardAlpha"/>
<feOffset dy="4"/>
<feGaussianBlur stdDeviation="2"/>
<feComposite in2="hardAlpha" operator="arithmetic" k2="-1" k3="1"/>
<feColorMatrix type="matrix" values="0 0 0 0 0 0 0 0 0 0 0 0 0 0 0 0 0 0 0.25 0"/>
<feBlend mode="normal" in2="shape" result="effect1_innerShadow"/>
</filter>
<filter id="filter7_i" x="511.866" y="498.631" width="154.196" height="153.786" filterUnits="userSpaceOnUse" color-interpolation-filters="sRGB">
<feFlood flood-opacity="0" result="BackgroundImageFix"/>
<feBlend mode="normal" in="SourceGraphic" in2="BackgroundImageFix" result="shape"/>
<feColorMatrix in="SourceAlpha" type="matrix" values="0 0 0 0 0 0 0 0 0 0 0 0 0 0 0 0 0 0 127 0" result="hardAlpha"/>
<feOffset dy="4"/>
<feGaussianBlur stdDeviation="2"/>
<feComposite in2="hardAlpha" operator="arithmetic" k2="-1" k3="1"/>
<feColorMatrix type="matrix" values="0 0 0 0 0 0 0 0 0 0 0 0 0 0 0 0 0 0 0.25 0"/>
<feBlend mode="normal" in2="shape" result="effect1_innerShadow"/>
</filter>
<filter id="filter8_i" x="571.734" y="394.038" width="154.196" height="153.786" filterUnits="userSpaceOnUse" color-interpolation-filters="sRGB">
<feFlood flood-opacity="0" result="BackgroundImageFix"/>
<feBlend mode="normal" in="SourceGraphic" in2="BackgroundImageFix" result="shape"/>
<feColorMatrix in="SourceAlpha" type="matrix" values="0 0 0 0 0 0 0 0 0 0 0 0 0 0 0 0 0 0 127 0" result="hardAlpha"/>
<feOffset dy="4"/>
<feGaussianBlur stdDeviation="2"/>
<feComposite in2="hardAlpha" operator="arithmetic" k2="-1" k3="1"/>
<feColorMatrix type="matrix" values="0 0 0 0 0 0 0 0 0 0 0 0 0 0 0 0 0 0 0.25 0"/>
<feBlend mode="normal" in2="shape" result="effect1_innerShadow"/>
</filter>
<filter id="filter9_i" x="269.775" y="498.347" width="154.196" height="153.786" filterUnits="userSpaceOnUse" color-interpolation-filters="sRGB">
<feFlood flood-opacity="0" result="BackgroundImageFix"/>
<feBlend mode="normal" in="SourceGraphic" in2="BackgroundImageFix" result="shape"/>
<feColorMatrix in="SourceAlpha" type="matrix" values="0 0 0 0 0 0 0 0 0 0 0 0 0 0 0 0 0 0 127 0" result="hardAlpha"/>
<feOffset dy="4"/>
<feGaussianBlur stdDeviation="2"/>
<feComposite in2="hardAlpha" operator="arithmetic" k2="-1" k3="1"/>
<feColorMatrix type="matrix" values="0 0 0 0 0 0 0 0 0 0 0 0 0 0 0 0 0 0 0.25 0"/>
<feBlend mode="normal" in2="shape" result="effect1_innerShadow"/>
</filter>
<filter id="filter10_i" x="330.421" y="603.389" width="154.196" height="153.786" filterUnits="userSpaceOnUse" color-interpolation-filters="sRGB">
<feFlood flood-opacity="0" result="BackgroundImageFix"/>
<feBlend mode="normal" in="SourceGraphic" in2="BackgroundImageFix" result="shape"/>
<feColorMatrix in="SourceAlpha" type="matrix" values="0 0 0 0 0 0 0 0 0 0 0 0 0 0 0 0 0 0 127 0" result="hardAlpha"/>
<feOffset dy="4"/>
<feGaussianBlur stdDeviation="2"/>
<feComposite in2="hardAlpha" operator="arithmetic" k2="-1" k3="1"/>
<feColorMatrix type="matrix" values="0 0 0 0 0 0 0 0 0 0 0 0 0 0 0 0 0 0 0.25 0"/>
<feBlend mode="normal" in2="shape" result="effect1_innerShadow"/>
</filter>
<filter id="filter11_i" x="390.29" y="498.795" width="154.196" height="153.786" filterUnits="userSpaceOnUse" color-interpolation-filters="sRGB">
<feFlood flood-opacity="0" result="BackgroundImageFix"/>
<feBlend mode="normal" in="SourceGraphic" in2="BackgroundImageFix" result="shape"/>
<feColorMatrix in="SourceAlpha" type="matrix" values="0 0 0 0 0 0 0 0 0 0 0 0 0 0 0 0 0 0 127 0" result="hardAlpha"/>
<feOffset dy="4"/>
<feGaussianBlur stdDeviation="2"/>
<feComposite in2="hardAlpha" operator="arithmetic" k2="-1" k3="1"/>
<feColorMatrix type="matrix" values="0 0 0 0 0 0 0 0 0 0 0 0 0 0 0 0 0 0 0.25 0"/>
<feBlend mode="normal" in2="shape" result="effect1_innerShadow"/>
</filter>
<filter id="filter12_i" x="813.049" y="184.688" width="154.196" height="153.786" filterUnits="userSpaceOnUse" color-interpolation-filters="sRGB">
<feFlood flood-opacity="0" result="BackgroundImageFix"/>
<feBlend mode="normal" in="SourceGraphic" in2="BackgroundImageFix" result="shape"/>
<feColorMatrix in="SourceAlpha" type="matrix" values="0 0 0 0 0 0 0 0 0 0 0 0 0 0 0 0 0 0 127 0" result="hardAlpha"/>
<feOffset dy="4"/>
<feGaussianBlur stdDeviation="2"/>
<feComposite in2="hardAlpha" operator="arithmetic" k2="-1" k3="1"/>
<feColorMatrix type="matrix" values="0 0 0 0 0 0 0 0 0 0 0 0 0 0 0 0 0 0 0.25 0"/>
<feBlend mode="normal" in2="shape" result="effect1_innerShadow"/>
</filter>
<filter id="filter13_i" x="873.695" y="289.729" width="154.196" height="153.786" filterUnits="userSpaceOnUse" color-interpolation-filters="sRGB">
<feFlood flood-opacity="0" result="BackgroundImageFix"/>
<feBlend mode="normal" in="SourceGraphic" in2="BackgroundImageFix" result="shape"/>
<feColorMatrix in="SourceAlpha" type="matrix" values="0 0 0 0 0 0 0 0 0 0 0 0 0 0 0 0 0 0 127 0" result="hardAlpha"/>
<feOffset dy="4"/>
<feGaussianBlur stdDeviation="2"/>
<feComposite in2="hardAlpha" operator="arithmetic" k2="-1" k3="1"/>
<feColorMatrix type="matrix" values="0 0 0 0 0 0 0 0 0 0 0 0 0 0 0 0 0 0 0.25 0"/>
<feBlend mode="normal" in2="shape" result="effect1_innerShadow"/>
</filter>
<filter id="filter14_i" x="933.564" y="185.137" width="154.196" height="153.786" filterUnits="userSpaceOnUse" color-interpolation-filters="sRGB">
<feFlood flood-opacity="0" result="BackgroundImageFix"/>
<feBlend mode="normal" in="SourceGraphic" in2="BackgroundImageFix" result="shape"/>
<feColorMatrix in="SourceAlpha" type="matrix" values="0 0 0 0 0 0 0 0 0 0 0 0 0 0 0 0 0 0 127 0" result="hardAlpha"/>
<feOffset dy="4"/>
<feGaussianBlur stdDeviation="2"/>
<feComposite in2="hardAlpha" operator="arithmetic" k2="-1" k3="1"/>
<feColorMatrix type="matrix" values="0 0 0 0 0 0 0 0 0 0 0 0 0 0 0 0 0 0 0.25 0"/>
<feBlend mode="normal" in2="shape" result="effect1_innerShadow"/>
</filter>
<filter id="filter15_i" x="631.604" y="289.444" width="154.196" height="153.786" filterUnits="userSpaceOnUse" color-interpolation-filters="sRGB">
<feFlood flood-opacity="0" result="BackgroundImageFix"/>
<feBlend mode="normal" in="SourceGraphic" in2="BackgroundImageFix" result="shape"/>
<feColorMatrix in="SourceAlpha" type="matrix" values="0 0 0 0 0 0 0 0 0 0 0 0 0 0 0 0 0 0 127 0" result="hardAlpha"/>
<feOffset dy="4"/>
<feGaussianBlur stdDeviation="2"/>
<feComposite in2="hardAlpha" operator="arithmetic" k2="-1" k3="1"/>
<feColorMatrix type="matrix" values="0 0 0 0 0 0 0 0 0 0 0 0 0 0 0 0 0 0 0.25 0"/>
<feBlend mode="normal" in2="shape" result="effect1_innerShadow"/>
</filter>
<filter id="filter16_i" x="692.25" y="394.487" width="154.196" height="153.786" filterUnits="userSpaceOnUse" color-interpolation-filters="sRGB">
<feFlood flood-opacity="0" result="BackgroundImageFix"/>
<feBlend mode="normal" in="SourceGraphic" in2="BackgroundImageFix" result="shape"/>
<feColorMatrix in="SourceAlpha" type="matrix" values="0 0 0 0 0 0 0 0 0 0 0 0 0 0 0 0 0 0 127 0" result="hardAlpha"/>
<feOffset dy="4"/>
<feGaussianBlur stdDeviation="2"/>
<feComposite in2="hardAlpha" operator="arithmetic" k2="-1" k3="1"/>
<feColorMatrix type="matrix" values="0 0 0 0 0 0 0 0 0 0 0 0 0 0 0 0 0 0 0.25 0"/>
<feBlend mode="normal" in2="shape" result="effect1_innerShadow"/>
</filter>
<filter id="filter17_i" x="752.119" y="289.894" width="154.196" height="153.786" filterUnits="userSpaceOnUse" color-interpolation-filters="sRGB">
<feFlood flood-opacity="0" result="BackgroundImageFix"/>
<feBlend mode="normal" in="SourceGraphic" in2="BackgroundImageFix" result="shape"/>
<feColorMatrix in="SourceAlpha" type="matrix" values="0 0 0 0 0 0 0 0 0 0 0 0 0 0 0 0 0 0 127 0" result="hardAlpha"/>
<feOffset dy="4"/>
<feGaussianBlur stdDeviation="2"/>
<feComposite in2="hardAlpha" operator="arithmetic" k2="-1" k3="1"/>
<feColorMatrix type="matrix" values="0 0 0 0 0 0 0 0 0 0 0 0 0 0 0 0 0 0 0.25 0"/>
<feBlend mode="normal" in2="shape" result="effect1_innerShadow"/>
</filter>
<filter id="filter18_i" x="813.826" y="394.323" width="154.196" height="153.786" filterUnits="userSpaceOnUse" color-interpolation-filters="sRGB">
<feFlood flood-opacity="0" result="BackgroundImageFix"/>
<feBlend mode="normal" in="SourceGraphic" in2="BackgroundImageFix" result="shape"/>
<feColorMatrix in="SourceAlpha" type="matrix" values="0 0 0 0 0 0 0 0 0 0 0 0 0 0 0 0 0 0 127 0" result="hardAlpha"/>
<feOffset dy="4"/>
<feGaussianBlur stdDeviation="2"/>
<feComposite in2="hardAlpha" operator="arithmetic" k2="-1" k3="1"/>
<feColorMatrix type="matrix" values="0 0 0 0 0 0 0 0 0 0 0 0 0 0 0 0 0 0 0.25 0"/>
<feBlend mode="normal" in2="shape" result="effect1_innerShadow"/>
</filter>
<filter id="filter19_i" x="874.472" y="499.365" width="154.196" height="153.786" filterUnits="userSpaceOnUse" color-interpolation-filters="sRGB">
<feFlood flood-opacity="0" result="BackgroundImageFix"/>
<feBlend mode="normal" in="SourceGraphic" in2="BackgroundImageFix" result="shape"/>
<feColorMatrix in="SourceAlpha" type="matrix" values="0 0 0 0 0 0 0 0 0 0 0 0 0 0 0 0 0 0 127 0" result="hardAlpha"/>
<feOffset dy="4"/>
<feGaussianBlur stdDeviation="2"/>
<feComposite in2="hardAlpha" operator="arithmetic" k2="-1" k3="1"/>
<feColorMatrix type="matrix" values="0 0 0 0 0 0 0 0 0 0 0 0 0 0 0 0 0 0 0.25 0"/>
<feBlend mode="normal" in2="shape" result="effect1_innerShadow"/>
</filter>
<filter id="filter20_i" x="934.341" y="394.771" width="154.196" height="153.786" filterUnits="userSpaceOnUse" color-interpolation-filters="sRGB">
<feFlood flood-opacity="0" result="BackgroundImageFix"/>
<feBlend mode="normal" in="SourceGraphic" in2="BackgroundImageFix" result="shape"/>
<feColorMatrix in="SourceAlpha" type="matrix" values="0 0 0 0 0 0 0 0 0 0 0 0 0 0 0 0 0 0 127 0" result="hardAlpha"/>
<feOffset dy="4"/>
<feGaussianBlur stdDeviation="2"/>
<feComposite in2="hardAlpha" operator="arithmetic" k2="-1" k3="1"/>
<feColorMatrix type="matrix" values="0 0 0 0 0 0 0 0 0 0 0 0 0 0 0 0 0 0 0.25 0"/>
<feBlend mode="normal" in2="shape" result="effect1_innerShadow"/>
</filter>
<filter id="filter21_i" x="632.381" y="499.08" width="154.196" height="153.786" filterUnits="userSpaceOnUse" color-interpolation-filters="sRGB">
<feFlood flood-opacity="0" result="BackgroundImageFix"/>
<feBlend mode="normal" in="SourceGraphic" in2="BackgroundImageFix" result="shape"/>
<feColorMatrix in="SourceAlpha" type="matrix" values="0 0 0 0 0 0 0 0 0 0 0 0 0 0 0 0 0 0 127 0" result="hardAlpha"/>
<feOffset dy="4"/>
<feGaussianBlur stdDeviation="2"/>
<feComposite in2="hardAlpha" operator="arithmetic" k2="-1" k3="1"/>
<feColorMatrix type="matrix" values="0 0 0 0 0 0 0 0 0 0 0 0 0 0 0 0 0 0 0.25 0"/>
<feBlend mode="normal" in2="shape" result="effect1_innerShadow"/>
</filter>
<filter id="filter22_i" x="693.027" y="604.122" width="154.196" height="153.786" filterUnits="userSpaceOnUse" color-interpolation-filters="sRGB">
<feFlood flood-opacity="0" result="BackgroundImageFix"/>
<feBlend mode="normal" in="SourceGraphic" in2="BackgroundImageFix" result="shape"/>
<feColorMatrix in="SourceAlpha" type="matrix" values="0 0 0 0 0 0 0 0 0 0 0 0 0 0 0 0 0 0 127 0" result="hardAlpha"/>
<feOffset dy="4"/>
<feGaussianBlur stdDeviation="2"/>
<feComposite in2="hardAlpha" operator="arithmetic" k2="-1" k3="1"/>
<feColorMatrix type="matrix" values="0 0 0 0 0 0 0 0 0 0 0 0 0 0 0 0 0 0 0.25 0"/>
<feBlend mode="normal" in2="shape" result="effect1_innerShadow"/>
</filter>
<filter id="filter23_i" x="752.896" y="499.529" width="154.196" height="153.786" filterUnits="userSpaceOnUse" color-interpolation-filters="sRGB">
<feFlood flood-opacity="0" result="BackgroundImageFix"/>
<feBlend mode="normal" in="SourceGraphic" in2="BackgroundImageFix" result="shape"/>
<feColorMatrix in="SourceAlpha" type="matrix" values="0 0 0 0 0 0 0 0 0 0 0 0 0 0 0 0 0 0 127 0" result="hardAlpha"/>
<feOffset dy="4"/>
<feGaussianBlur stdDeviation="2"/>
<feComposite in2="hardAlpha" operator="arithmetic" k2="-1" k3="1"/>
<feColorMatrix type="matrix" values="0 0 0 0 0 0 0 0 0 0 0 0 0 0 0 0 0 0 0.25 0"/>
<feBlend mode="normal" in2="shape" result="effect1_innerShadow"/>
</filter>
</defs>
</svg>
