<svg width="72" height="31" viewBox="0 0 72 31" fill="none" xmlns="http://www.w3.org/2000/svg">
<path d="M16.1952 4.99902C17.5447 7.24857 18.8365 9.40361 20.1282 11.5586C22.3936 15.3394 24.6493 19.1202 26.9339 22.9009C27.146 23.2601 27.117 23.4019 26.7507 23.6193C22.6056 26.02 18.4702 28.4397 14.3347 30.8689C14.0937 31.0106 13.9202 31.0579 13.6503 30.9067C9.5148 28.5059 5.36969 26.124 1.24387 23.7327C1.21495 23.7138 1.19567 23.6854 1.16675 23.6476C1.27279 23.4964 1.42702 23.572 1.55234 23.572C1.96685 23.5625 2.38136 23.5625 2.80551 23.5625C3.89481 23.5625 5.0323 23.3735 6.05412 23.6382C7.0663 23.9028 7.9628 24.6212 8.90749 25.141C10.4981 26.02 12.0983 26.8991 13.6792 27.7875C13.9395 27.9293 14.113 27.9199 14.3636 27.7781C17.1977 26.124 20.0318 24.4888 22.8852 22.8631C23.2226 22.6741 23.2418 22.5512 23.0587 22.2298C20.3499 17.4661 17.6701 12.6929 14.9613 7.93856C14.7878 7.6361 14.7878 7.41871 14.9709 7.1257C15.3758 6.45462 15.7517 5.76463 16.1952 4.99902Z" fill="#261F14"/>
<path d="M61.6663 21.6627V7.35254H72.0001V10.0274H64.7799V13.052H71.8555V15.7364H64.7799V18.9784H72.0001V21.6627H61.6663Z" fill="#261F14"/>
<path d="M50.7925 21.6627L45.1436 7.35254H48.691L52.7397 18.364L56.7691 7.35254H60.3166L54.6869 21.6722H50.7925V21.6627Z" fill="#261F14"/>
<path d="M40.6997 21.6627V7.35254H43.8037V21.6722H40.6997V21.6627Z" fill="#261F14"/>
<path d="M27.8018 12.9764H34.7038V7.35254H37.8368V21.6722H34.7038V15.6608H27.8114" fill="#261F14"/>
<path d="M28.0138 21.6533C27.8306 21.8045 27.8113 21.6249 27.7535 21.5304C26.9727 20.1693 26.2015 18.7988 25.4207 17.4377C25.2761 17.192 25.2761 16.9368 25.2761 16.6627C25.2761 14.1957 25.2664 11.7193 25.2857 9.25238C25.2857 8.86486 25.17 8.65691 24.823 8.45842C21.8925 6.87051 18.962 5.27314 16.0508 3.64741C15.6556 3.43002 15.5013 3.45837 15.2796 3.85535C12.9082 8.02364 10.5079 12.1825 8.11727 16.3413C7.78952 16.9273 7.45213 17.4944 7.13402 18.071C6.98942 18.3357 6.80626 18.4585 6.48815 18.4491C5.78445 18.4302 5.0711 18.4207 4.3674 18.4491C3.91433 18.468 3.93361 18.3262 4.11676 18.0048C5.20606 16.1239 6.28572 14.2335 7.37501 12.3432C9.65964 8.3639 11.9443 4.39411 14.2193 0.40541C14.4602 -0.0293775 14.6241 -0.114445 15.0965 0.150208C19.2223 2.44702 23.3674 4.70602 27.5222 6.96502C27.8595 7.14461 27.9656 7.35255 27.9656 7.71172C27.9559 12.1163 27.9559 16.5303 27.9559 20.9349C27.9559 21.1429 27.9849 21.3603 28.0041 21.5682C28.0331 21.5871 28.0523 21.5966 28.0427 21.6155C28.0331 21.6438 28.0234 21.6533 28.0138 21.6533Z" fill="#261F14"/>
<path d="M2.69968 19.5268C2.86356 19.7064 3.07563 19.6119 3.25879 19.6119C8.75346 19.6213 14.2481 19.6213 19.7332 19.6119C20.2537 19.6119 20.5911 19.7064 20.8321 20.2168C21.1309 20.869 21.5358 21.4834 21.9118 22.1261C21.6226 22.2395 21.3623 22.1922 21.1213 22.1922C14.2867 22.1922 7.45209 22.1828 0.617488 22.2017C0.106579 22.2017 -0.00909812 22.0505 0.000541666 21.5779C0.0198212 16.9559 0.0101814 12.3339 0.0101814 7.71194C0.0101814 7.43784 0.0198212 7.21099 0.318654 7.05031C4.41556 4.7724 8.49319 2.46614 12.5805 0.16933C12.619 0.150426 12.6769 0.150426 12.7829 0.12207C12.0021 1.52095 11.2405 2.86312 10.4886 4.21474C10.3729 4.41323 10.1705 4.4983 9.98736 4.60227C7.81841 5.85937 5.63981 7.09757 3.47086 8.35467C3.37447 8.41138 3.29735 8.47754 3.21059 8.53426C2.81536 8.80836 2.7768 9.19589 2.78644 9.64013C2.80572 12.712 2.79608 15.7839 2.79608 18.8463C2.78644 19.0731 2.83464 19.3094 2.69968 19.5268Z" fill="#261F14"/>
</svg>
